<svg xmlns="http://www.w3.org/2000/svg" width="130" height="25" viewBox="0 0 130 25" version="1.1"><title>Group</title><desc>Created with Sketch.</desc><g stroke="none" stroke-width="1" fill="none" fill-rule="evenodd"><g fill="#000000"><g transform="translate(0.000000, 7.000000)"><path d="M24.1 10.8L28.3 17.2 24.2 17.2 21.9 13.5 19.6 17.2 15.5 17.2 19.8 10.9 15.4 4.2 19.5 4.2 22 8.1 24.5 4.2 28.5 4.2 24.1 10.8 24.1 10.8ZM29.9 4.2L35.4 4.2C38.7 4.2 40.8 5.9 40.8 8.8L40.8 8.8C40.8 11.9 38.5 13.5 35.3 13.5L33.5 13.5 33.5 17.2 29.9 17.2 29.9 4.2 29.9 4.2ZM35.2 10.7C36.5 10.7 37.2 10 37.2 9L37.2 8.9C37.2 7.8 36.5 7.2 35.2 7.2L33.5 7.2 33.5 10.7 35.2 10.7 35.2 10.7ZM54.7 4.2L60.9 4.2C62.9 4.2 64.2 4.7 65.1 5.6 65.9 6.4 66.2 7.4 66.2 8.7L66.2 8.7C66.2 10.7 65.2 12 63.6 12.7L66.7 17.2 62.5 17.2 59.9 13.3 59.9 13.3 58.3 13.3 58.3 17.2 54.7 17.2 54.7 4.2 54.7 4.2ZM60.7 10.4C61.9 10.4 62.6 9.9 62.6 8.9L62.6 8.9C62.6 7.9 61.9 7.3 60.7 7.3L58.3 7.3 58.3 10.5 60.7 10.5 60.7 10.4ZM68.2 4.2L71.8 4.2 71.8 17.2 68.2 17.2 68.2 4.2 68.2 4.2ZM86.7 4.2L90.1 4.2 95.4 11.1 95.4 4.2 99 4.2 99 17.2 95.8 17.2 90.3 10.1 90.3 17.2 86.7 17.2 86.7 4.2 86.7 4.2ZM100.6 10.7L100.6 10.7C100.6 6.9 103.5 4 107.4 4 110.1 4 111.8 5.1 112.9 6.7L110.2 8.8C109.5 7.8 108.6 7.2 107.4 7.2 105.6 7.2 104.3 8.8 104.3 10.7L104.3 10.7C104.3 12.7 105.6 14.2 107.4 14.2 108.7 14.2 109.5 13.5 110.3 12.6L113 14.5C111.8 16.2 110.1 17.5 107.3 17.5 103.6 17.5 100.6 14.6 100.6 10.7L100.6 10.7ZM7.3 14.1L7.3 12.1 12.4 12.1 12.4 9.2 7.3 9.2 7.3 7.3 14.1 7.3 14.1 4.2 3.7 4.2 3.7 9.2 0.3 9.2 0.3 12.1 3.7 12.1 3.7 17.2 14.2 17.2 14.2 14.1 7.3 14.1Z"/><circle cx="128" cy="2.5" r="1.7"/><path d="M118.2 14.1L118.2 12.1 123.3 12.1 123.3 9.2 118.2 9.2 118.2 7.3 125 7.3 125 4.2 114.6 4.2 114.6 17.2 125.1 17.2 125.1 14.1 118.2 14.1ZM77.7 14.1L77.7 12.1 82.9 12.1 82.9 9.2 77.7 9.2 77.7 7.3 84.6 7.3 84.6 4.2 74.1 4.2 74.1 17.2 84.7 17.2 84.7 14.1 77.7 14.1ZM45.9 14.1L45.9 12.1 51.1 12.1 51.1 9.2 45.9 9.2 45.9 7.3 52.8 7.3 52.8 4.2 42.3 4.2 42.3 17.2 52.9 17.2 52.9 14.1 45.9 14.1Z"/></g><g transform="translate(3.000000, 0.000000)"><path d="M6.8 2.7L5.9 2.7C5.6 2.7 5.6 2.7 5.3 3.1 5.1 3.2 2.5 5.9 2.5 5.9L2.5 1.4C2.5 1.3 2.4 1.2 2.3 1.2L0.9 1.2C0.8 1.2 0.7 1.3 0.7 1.4L0.7 2C0.7 2.2 0.8 2.3 0.9 2.3L1.4 2.3 1.4 7.7 0.9 7.7C0.8 7.7 0.7 7.8 0.7 8L0.7 8.6C0.7 8.7 0.8 8.8 0.9 8.8L3 8.8C3.1 8.8 3.2 8.7 3.2 8.6L3.2 8C3.2 7.8 3.1 7.7 3 7.7L2.5 7.7 2.5 7.3 3.5 6.2 5.4 8.5C5.6 8.8 5.6 8.8 6 8.8L6.8 8.8C6.9 8.8 7 8.7 7 8.6L7 8C7 7.8 6.9 7.7 6.8 7.7L6.1 7.7 4.3 5.5 6 3.8 6.8 3.8C6.9 3.8 7 3.7 7 3.5L7 2.9C7 2.8 6.9 2.7 6.8 2.7M14 7.7L13.5 7.7 13.5 5.1C13.5 3.6 12.5 2.6 11 2.6 10.3 2.6 9.8 2.8 9.3 3.2L9.3 2.9C9.3 2.8 9.2 2.7 9.1 2.7L7.7 2.7C7.6 2.7 7.5 2.8 7.5 2.9L7.5 3.5C7.5 3.7 7.6 3.8 7.7 3.8L8.2 3.8 8.2 7.7 7.7 7.7C7.6 7.7 7.5 7.8 7.5 8L7.5 8.6C7.5 8.7 7.6 8.8 7.7 8.8L9.8 8.8C9.9 8.8 10 8.7 10 8.6L10 8C10 7.8 9.9 7.7 9.8 7.7L9.3 7.7 9.3 5.3C9.3 4.3 10 3.6 11 3.6 11.9 3.6 12.5 4.2 12.5 5.2L12.5 7.7 12 7.7C11.8 7.7 11.7 7.8 11.7 8L11.7 8.6C11.7 8.7 11.8 8.8 12 8.8L14 8.8C14.2 8.8 14.2 8.7 14.2 8.6L14.2 8C14.2 7.8 14.2 7.7 14 7.7M17.3 2.6C15.6 2.6 14.2 4 14.2 5.8 14.2 7.5 15.6 8.9 17.3 8.9 19.1 8.9 20.4 7.5 20.4 5.7 20.4 4 19.1 2.6 17.3 2.6M17.3 7.9C16.2 7.9 15.3 6.9 15.3 5.7 15.3 4.5 16.2 3.6 17.3 3.6 18.4 3.6 19.3 4.6 19.3 5.8 19.3 7 18.5 7.9 17.3 7.9M29.5 2.7L27.4 2.7C27.2 2.7 27.2 2.8 27.2 2.9L27.2 3.5C27.2 3.7 27.2 3.8 27.4 3.8L27.9 3.8 26.9 7 25.4 2.9C25.4 2.8 25.3 2.7 25.2 2.7L24.8 2.7C24.7 2.7 24.6 2.8 24.5 2.9L23.1 7 22.1 3.8 22.6 3.8C22.7 3.8 22.8 3.7 22.8 3.5L22.8 2.9C22.8 2.8 22.7 2.7 22.6 2.7L20.5 2.7C20.3 2.7 20.2 2.8 20.2 2.9L20.2 3.5C20.2 3.7 20.3 3.8 20.5 3.8L21 3.8 22.6 8.6C22.7 8.7 22.8 8.8 22.9 8.8L23.3 8.8C23.4 8.8 23.6 8.7 23.6 8.6L25 4.6 26.4 8.6C26.4 8.7 26.5 8.8 26.6 8.8L27.1 8.8C27.2 8.8 27.3 8.7 27.3 8.6L29 3.8 29.5 3.8C29.6 3.8 29.7 3.7 29.7 3.5L29.7 2.9C29.7 2.8 29.6 2.7 29.5 2.7M32.4 7.7L32 7.7 32 2.9C32 2.8 31.9 2.7 31.7 2.7L30.4 2.7C30.2 2.7 30.2 2.8 30.2 2.9L30.2 3.5C30.2 3.7 30.2 3.8 30.4 3.8L30.9 3.8 30.9 7.7 30 7.7C29.8 7.7 29.8 7.8 29.8 8L29.8 8.6C29.8 8.7 29.8 8.8 30 8.8L32.4 8.8C32.6 8.8 32.7 8.7 32.7 8.6L32.7 8C32.7 7.8 32.6 7.7 32.4 7.7M37.2 5.7L36.6 5.7C36.4 5.7 36.4 5.8 36.4 5.9L36.4 7.1C36.4 7.4 36.1 7.9 35.6 7.9 35 7.9 34.8 7.6 34.8 7L34.8 3.8 36.2 3.8C36.4 3.8 36.4 3.7 36.4 3.5L36.4 2.9C36.4 2.8 36.4 2.7 36.2 2.7L34.8 2.7 34.8 1.4C34.8 1.3 34.7 1.2 34.6 1.2L33.9 1.2C33.8 1.2 33.7 1.3 33.7 1.4L33.7 2.7 33.1 2.7C32.9 2.7 32.8 2.8 32.8 2.9L32.8 3.5C32.8 3.7 32.9 3.8 33.1 3.8L33.7 3.8 33.7 7.1C33.7 8.2 34.4 8.9 35.5 8.9 36.7 8.9 37.4 8.2 37.4 7.2L37.4 5.9C37.4 5.8 37.3 5.7 37.2 5.7M31.4 1.9C31.8 1.9 32.1 1.6 32.1 1.3 32.1 0.9 31.8 0.6 31.4 0.6 31 0.6 30.7 0.9 30.7 1.3 30.7 1.6 31 1.9 31.4 1.9"/></g></g></g></svg>