<?xml version="1.0" standalone="no"?>
<!DOCTYPE svg PUBLIC "-//W3C//DTD SVG 1.1//EN" "http://www.w3.org/Graphics/SVG/1.1/DTD/svg11.dtd" >
<svg xmlns="http://www.w3.org/2000/svg">
<metadata>Generated by IcoMoon</metadata>
<defs>
<font id="SpvIcons" horiz-adv-x="1024">
<font-face units-per-em="1024" ascent="960" descent="-64" />
<missing-glyph horiz-adv-x="1024" />
<glyph unicode="&#x20;" horiz-adv-x="512" d="" />
<glyph unicode="&#xe800;" glyph-name="card" d="M816 289.6v0c0-14.4-11.2-25.6-25.6-25.6h-556.8c-14.4 0-25.6 11.2-25.6 24v182.4h608v-180.8zM208 606.4c0 14.4 11.2 25.6 25.6 25.6h556.8c14.4 0 25.6-11.2 25.6-25.6v-36.8h-608v36.8zM790.4 689.6h-556.8c-46.4 0-83.2-36.8-83.2-83.2v-315.2c0-1.6 0-3.2 0-4.8v0c1.6-44.8 38.4-81.6 83.2-81.6h556.8c46.4 0 83.2 36.8 83.2 83.2v320c0 44.8-36.8 81.6-83.2 81.6zM280 390.4h291.2c11.2 0 20.8 9.6 20.8 20.8s-9.6 20.8-20.8 20.8h-291.2c-11.2 0-20.8-9.6-20.8-20.8 0-1.6 0-3.2 1.6-6.4 3.2-8 9.6-14.4 19.2-14.4z" />
<glyph unicode="&#xe801;" glyph-name="chart" d="M632 97.6c-9.6 0-19.2 4.8-24 14.4l-81.6 139.2h-28.8l-81.6-139.2c-8-12.8-25.6-17.6-38.4-9.6-6.4 3.2-11.2 9.6-12.8 17.6s-1.6 14.4 3.2 20.8l65.6 110.4h-219.2c-35.2 0-62.4 27.2-62.4 60.8v425.6c0 1.6 0 1.6 0 3.2h-1.6c-16 0-28.8 12.8-28.8 28.8s12.8 28.8 28.8 28.8h723.2c16 0 28.8-12.8 28.8-28.8s-12.8-28.8-28.8-28.8h-1.6c0-1.6 0-1.6 0-3.2v-425.6c0-33.6-28.8-60.8-62.4-60.8h-217.6l64-110.4c3.2-6.4 4.8-14.4 3.2-20.8-1.6-8-6.4-12.8-12.8-17.6-3.2-3.2-9.6-4.8-14.4-4.8zM212.8 744c-6.4 0-11.2-4.8-11.2-9.6v-409.6c0-6.4 4.8-9.6 11.2-9.6h596.8c6.4 0 11.2 4.8 11.2 9.6v409.6c0 6.4-4.8 9.6-11.2 9.6h-596.8zM312 393.6c-8 0-14.4 3.2-19.2 8-11.2 11.2-11.2 28.8 0 40l123.2 124.8c9.6 11.2 28.8 11.2 38.4 0v0c0 0 0 0 0 0l1.6-1.6 126.4-102.4 134.4 163.2c12.8 12.8 30.4 11.2 41.6 1.6 11.2-11.2 11.2-28.8 0-41.6l-150.4-182.4c-4.8-4.8-12.8-8-20.8-8v0c-8 0-14.4 3.2-20.8 8v1.6l-129.6 104-105.6-105.6c-4.8-6.4-12.8-9.6-19.2-9.6z" />
<glyph unicode="&#xe802;" glyph-name="chat" d="M555.2 289.6h-59.2c-3.2 0-4.8-1.6-8-3.2l-136-94.4v80c0 1.6 0 3.2 0 4.8 0 6.4-6.4 12.8-12.8 12.8h-51.2c-40 0-72 33.6-72 75.2v177.6c0 20.8 8 40 22.4 54.4 3.2 3.2 4.8 6.4 4.8 9.6v30.4c0 4.8-3.2 9.6-6.4 11.2-4.8 1.6-9.6 1.6-14.4 0-38.4-25.6-60.8-67.2-60.8-113.6v-164.8c0-75.2 60.8-136 136-136v-123.2c0-4.8 3.2-9.6 8-12.8 1.6-1.6 3.2-1.6 6.4-1.6s6.4 1.6 8 3.2l177.6 134.4h59.2c8 0 12.8 6.4 12.8 12.8v27.2c0 9.6-6.4 16-14.4 16zM729.6 798.4h-318.4c-73.6 0-132.8-59.2-132.8-131.2v-158.4c0-72 59.2-131.2 132.8-131.2h123.2l172.8-129.6c1.6-1.6 4.8-3.2 8-3.2 1.6 0 4.8 0 6.4 1.6 4.8 1.6 8 6.4 8 12.8v118.4c73.6 0 132.8 59.2 132.8 131.2v158.4c0 72-60.8 131.2-132.8 131.2zM537.6 433.6h-132.8c-38.4 0-68.8 32-68.8 70.4v166.4c0 38.4 30.4 70.4 68.8 70.4h331.2c38.4 0 68.8-32 68.8-70.4v-168c0-38.4-30.4-70.4-68.8-70.4h-48c-8 0-12.8-6.4-12.8-12.8 0-1.6 0-1.6 0-3.2v-75.2l-131.2 89.6c-1.6 1.6-4.8 3.2-6.4 3.2z" />
<glyph unicode="&#xe803;" glyph-name="chevron-left" d="M643.2 262.4l-184 185.6 184 185.6-40 38.4-222.4-224 222.4-224z" />
<glyph unicode="&#xe804;" glyph-name="chevron-right" d="M380.8 262.4l184 185.6-184 185.6 40 38.4 222.4-224-222.4-224z" />
<glyph unicode="&#xe805;" glyph-name="ellipsis" d="M377.6 448c0 36.8-30.4 67.2-67.2 67.2s-67.2-30.4-67.2-67.2 30.4-67.2 67.2-67.2 67.2 30.4 67.2 67.2zM579.2 448c0 36.8-30.4 67.2-67.2 67.2s-67.2-30.4-67.2-67.2 30.4-67.2 67.2-67.2 67.2 30.4 67.2 67.2zM646.4 448c0-36.8 30.4-67.2 67.2-67.2s67.2 30.4 67.2 67.2-30.4 67.2-67.2 67.2c-36.8 0-67.2-30.4-67.2-67.2z" />
<glyph unicode="&#xe806;" glyph-name="home" d="M692.8 102.4h-361.6c-56 0-102.4 48-102.4 107.2v201.6h-35.2c-22.4 0-41.6 14.4-49.6 35.2-8 22.4-3.2 48 14.4 62.4l294.4 262.4c32 28.8 84.8 28.8 116.8 0l78.4-70.4v4.8c0 28.8 22.4 51.2 49.6 51.2h54.4c27.2 0 49.6-22.4 49.6-51.2v-140.8l62.4-56c17.6-16 24-41.6 14.4-64-8-20.8-27.2-35.2-49.6-35.2h-35.2v-201.6c1.6-57.6-44.8-105.6-100.8-105.6zM256 465.6h27.2v-254.4c0-28.8 22.4-52.8 48-52.8h361.6c27.2 0 48 24 48 52.8v254.4h88c0 0 0 1.6 0 3.2l-81.6 73.6v161.6h-44.8v-121.6l-168 148.8c-12.8 11.2-32 11.2-44.8 0l-294.4-262.4c0-3.2 0-4.8 0-4.8l60.8 1.6zM584 238.4h-144c-30.4 0-52.8 24-52.8 54.4v116.8c0 30.4 24 56 52.8 56h144c28.8 0 52.8-24 52.8-56v-116.8c0-30.4-22.4-54.4-52.8-54.4zM441.6 411.2v-118.4l144-1.6v118.4l-144 1.6z" />
<glyph unicode="&#xe807;" glyph-name="list" d="M848 273.6h-457.6v-54.4h457.6zM848 408h-457.6v-54.4h457.6zM848 542.4h-457.6v-54.4h457.6zM305.6 273.6h-129.6v-54.4h129.6zM305.6 408h-129.6v-54.4h129.6zM305.6 542.4h-129.6v-54.4h129.6zM848 676.8h-457.6v-54.4h457.6zM305.6 676.8h-129.6v-54.4h129.6z" />
<glyph unicode="&#xe808;" glyph-name="lock" d="M728 502.4v161.6c0 118.4-96 216-216 216s-216-96-216-216v-161.6c-44.8 0-80-36.8-80-80v-323.2c0-44.8 36.8-80 80-80h430.4c44.8 0 80 36.8 80 80v321.6c1.6 44.8-35.2 81.6-78.4 81.6zM350.4 664c0 88 72 160 161.6 160s161.6-72 161.6-160v-161.6h-323.2v161.6zM753.6 97.6c0-14.4-12.8-27.2-27.2-27.2h-430.4c-14.4 0-27.2 12.8-27.2 27.2v323.2c0 14.4 12.8 27.2 27.2 27.2h430.4c14.4 0 27.2-12.8 27.2-27.2v-323.2zM539.2 278.4v60.8c0 14.4-12.8 27.2-27.2 27.2s-27.2-12.8-27.2-27.2v-60.8c-16-9.6-27.2-27.2-27.2-46.4 0-30.4 24-54.4 54.4-54.4s54.4 24 54.4 54.4c0 20.8-11.2 38.4-27.2 46.4z" />
<glyph unicode="&#xe809;" glyph-name="mail" d="M148.8 731.2v-564.8h726.4v564.8h-726.4zM819.2 676.8l-307.2-256-307.2 256h614.4zM203.2 219.2v390.4l308.8-259.2 308.8 257.6v-390.4h-617.6z" />
<glyph unicode="&#xe80a;" glyph-name="money" d="M273.6 536c-107.2 0-214.4 33.6-214.4 96s108.8 96 214.4 96c107.2 0 214.4-33.6 214.4-96 0-64-108.8-96-214.4-96zM273.6 680c-110.4 0-168-33.6-168-49.6 0-14.4 59.2-49.6 168-49.6s168 35.2 168 49.6c0 16-59.2 49.6-168 49.6zM750.4 352c-107.2 0-214.4 33.6-214.4 96s108.8 96 214.4 96 214.4-33.6 214.4-96c1.6-62.4-107.2-96-214.4-96zM750.4 497.6c-110.4 0-168-33.6-168-49.6 0-14.4 59.2-49.6 168-49.6s168 35.2 168 49.6c0 14.4-56 49.6-168 49.6zM273.6 444.8c-88 0-164.8 20.8-196.8 54.4-9.6 9.6-8 24 0 33.6 9.6 9.6 24 8 33.6 0 19.2-20.8 81.6-40 163.2-40 83.2 0 142.4 20.8 161.6 40 9.6 9.6 24 9.6 33.6 0s9.6-24 0-33.6c-33.6-33.6-108.8-54.4-195.2-54.4zM291.2 353.6c-88 0-164.8 20.8-196.8 54.4-9.6 9.6-8 24 0 33.6 9.6 9.6 24 8 33.6 0 19.2-20.8 81.6-40 163.2-40 83.2 0 142.4 20.8 161.6 40 9.6 9.6 24 9.6 33.6 0s9.6-24 0-33.6c-33.6-33.6-108.8-54.4-195.2-54.4zM273.6 264c-88 0-164.8 20.8-196.8 54.4-9.6 9.6-8 24 0 33.6 9.6 9.6 24 8 33.6 0 19.2-20.8 81.6-40 163.2-40 83.2 0 142.4 20.8 161.6 40 9.6 9.6 24 9.6 33.6 0s9.6-24 0-33.6c-33.6-33.6-107.2-54.4-195.2-54.4zM763.2 252.8c-88 0-164.8 20.8-196.8 54.4-9.6 9.6-8 24 0 33.6 9.6 9.6 24 8 33.6 0 19.2-20.8 81.6-40 163.2-40 83.2 0 142.4 20.8 161.6 40 9.6 9.6 24 9.6 33.6 0s9.6-24 0-33.6c-33.6-33.6-108.8-54.4-195.2-54.4zM747.2 163.2c-88 0-164.8 20.8-196.8 54.4-9.6 9.6-8 24 0 33.6 9.6 9.6 24 8 33.6 0 19.2-20.8 81.6-40 163.2-40 83.2 0 142.4 20.8 161.6 40 9.6 9.6 24 9.6 33.6 0s9.6-24 0-33.6c-33.6-35.2-108.8-54.4-195.2-54.4zM286.4 172.8c-88 0-164.8 20.8-196.8 54.4-9.6 9.6-8 24 0 33.6 9.6 9.6 24 8 33.6 0 19.2-20.8 81.6-40 163.2-40 83.2 0 142.4 20.8 161.6 40 9.6 9.6 24 9.6 33.6 0s9.6-24 0-33.6c-33.6-33.6-107.2-54.4-195.2-54.4z" />
<glyph unicode="&#xe80b;" glyph-name="movements-outlined" d="M392 72l-204.8 233.6 169.6 193.6h-113.6v188.8h360v126.4c0 12.8 12.8 27.2 28.8 11.2l203.2-232-169.6-193.6h113.6v-187.2h-360v-131.2c0-14.4-9.6-28.8-27.2-9.6zM259.2 305.6l105.6-120v80h360v80h-360v80l-105.6-120zM419.2 400h185.6v100.8h-185.6v-100.8zM659.2 553.6v-80l105.6 120-105.6 120v-80h-360v-80h360z" />
<glyph unicode="&#xe80c;" glyph-name="movements" d="M169.6 649.6l152 150.4-38.4 38.4-214.4-216 214.4-214.4 38.4 36.8-152 150.4h598.4v54.4zM740.8 488l-38.4-36.8 152-150.4h-598.4v-54.4h598.4l-152-150.4 38.4-38.4 214.4 216z" />
<glyph unicode="&#xe80d;" glyph-name="shield" d="M512 78.4l-28.8 14.4c-27.2 14.4-81.6 48-134.4 110.4-43.2 52.8-76.8 115.2-100.8 185.6-25.6 76.8-38.4 166.4-38.4 262.4v52.8l54.4 8c83.2 12.8 179.2 65.6 217.6 88l32 19.2 32-19.2c38.4-22.4 136-75.2 217.6-88l52.8-8v-52.8c0-97.6-14.4-187.2-40-265.6-24-70.4-57.6-132.8-100.8-185.6-51.2-62.4-105.6-94.4-132.8-108.8l-30.4-12.8zM257.6 662.4v-11.2c0-91.2 12.8-174.4 36.8-248 20.8-65.6 52.8-121.6 91.2-169.6 46.4-56 94.4-86.4 120-97.6l6.4-3.2 6.4 3.2c24 11.2 72 40 118.4 96 40 46.4 70.4 104 92.8 169.6 24 73.6 36.8 156.8 36.8 249.6v11.2l-12.8 1.6c-86.4 12.8-184 64-235.2 92.8l-6.4 4.8-8-4.8c-40-24-144-80-235.2-92.8l-11.2-1.6zM512 168l-11.2 8c-22.4 12.8-56 38.4-91.2 78.4-36.8 43.2-65.6 96-86.4 156.8s-32 128-35.2 201.6v19.2l19.2 4.8c72 16 144 51.2 193.6 78.4l11.2 6.4 11.2-6.4c48-27.2 121.6-60.8 192-78.4l19.2-4.8v-19.2c-3.2-75.2-14.4-144-35.2-204.8s-49.6-113.6-86.4-156.8c-33.6-38.4-67.2-62.4-88-75.2l-12.8-8zM337.6 595.2c3.2-60.8 14.4-118.4 30.4-168 17.6-54.4 44.8-102.4 76.8-140.8 24-28.8 48-48 65.6-60.8 17.6 12.8 41.6 30.4 64 57.6 33.6 38.4 59.2 86.4 76.8 140.8 17.6 51.2 27.2 108.8 32 171.2-64 17.6-128 46.4-172.8 72-44.8-25.6-107.2-54.4-172.8-72z" />
<glyph unicode="&#xe80e;" glyph-name="user" d="M835.2 124.8h-646.4v27.2c0 67.2 49.6 212.8 171.2 256l14.4 4.8 11.2-9.6c35.2-27.2 80-43.2 126.4-43.2s89.6 14.4 126.4 41.6l11.2 9.6 14.4-4.8c118.4-43.2 169.6-188.8 169.6-254.4v-27.2zM246.4 179.2h532.8c-9.6 56-49.6 139.2-118.4 171.2-43.2-28.8-92.8-43.2-145.6-43.2s-104 16-147.2 44.8c-75.2-33.6-112-120-121.6-172.8zM512 388.8c-105.6 0-190.4 86.4-190.4 190.4 0 105.6 86.4 192 190.4 192 105.6 0 192-86.4 192-192s-86.4-190.4-192-190.4zM512 716.8c-75.2 0-137.6-62.4-137.6-137.6s62.4-137.6 137.6-137.6c75.2 0 137.6 62.4 137.6 137.6 0 76.8-62.4 137.6-137.6 137.6z" />
<glyph unicode="&#xe80f;" glyph-name="menu" d="M232 672h560v-75.2h-560v75.2zM232 486.4h560v-75.2h-560v75.2zM232 299.2h560v-75.2h-560v75.2z" />
<glyph unicode="&#xe810;" glyph-name="settings" d="M512 630.4c-100.8 0-182.4-81.6-182.4-182.4s81.6-182.4 182.4-182.4c100.8 0 182.4 81.6 182.4 182.4s-81.6 182.4-182.4 182.4zM512 211.2c-131.2 0-236.8 107.2-236.8 236.8 0 131.2 107.2 236.8 236.8 236.8 131.2 0 236.8-107.2 236.8-236.8 0-131.2-105.6-236.8-236.8-236.8zM334.4 94.4c17.6-9.6 35.2-16 54.4-22.4 19.2 49.6 68.8 84.8 123.2 84.8s104-35.2 123.2-84.8c19.2 6.4 36.8 14.4 54.4 22.4-22.4 49.6-12.8 108.8 27.2 148.8 38.4 38.4 99.2 49.6 148.8 27.2 9.6 17.6 16 35.2 22.4 54.4-51.2 19.2-84.8 68.8-84.8 123.2 0 56 35.2 104 84.8 123.2-6.4 19.2-14.4 36.8-22.4 54.4-17.6-8-35.2-11.2-54.4-11.2-35.2 0-68.8 14.4-92.8 38.4-40 40-49.6 99.2-27.2 148.8-17.6 9.6-35.2 16-54.4 22.4-19.2-51.2-68.8-84.8-123.2-84.8s-104 35.2-123.2 84.8c-19.2-6.4-36.8-14.4-54.4-22.4 22.4-49.6 12.8-108.8-27.2-148.8-25.6-25.6-57.6-38.4-92.8-38.4-19.2 0-36.8 4.8-54.4 11.2-9.6-17.6-16-35.2-22.4-54.4 51.2-19.2 84.8-68.8 84.8-123.2 0-56-35.2-104-84.8-123.2 6.4-19.2 14.4-36.8 22.4-54.4 17.6 8 35.2 11.2 54.4 11.2 35.2 0 68.8-14.4 92.8-38.4 36.8-40 46.4-99.2 25.6-148.8zM408 11.2c-1.6 0-4.8 0-6.4 1.6-41.6 11.2-81.6 27.2-118.4 49.6-6.4 3.2-11.2 11.2-12.8 17.6-1.6 8 0 16 4.8 22.4 24 30.4 20.8 75.2-6.4 102.4s-73.6 28.8-102.4 6.4c-6.4-4.8-14.4-6.4-22.4-4.8s-14.4 6.4-17.6 12.8c-22.4 36.8-38.4 76.8-49.6 118.4-1.6 8 0 16 3.2 22.4 4.8 6.4 11.2 11.2 19.2 11.2 38.4 4.8 68.8 38.4 68.8 76.8s-28.8 72-68.8 76.8c-8 1.6-14.4 4.8-19.2 11.2-4.8 8-6.4 16-4.8 24 11.2 41.6 27.2 81.6 49.6 118.4 4.8 6.4 11.2 11.2 17.6 12.8 8 1.6 16 0 22.4-4.8 30.4-24 76.8-20.8 102.4 6.4 27.2 27.2 30.4 72 6.4 102.4-4.8 6.4-6.4 14.4-4.8 22.4s6.4 14.4 12.8 19.2c36.8 22.4 76.8 38.4 118.4 49.6 8 1.6 16 0 22.4-3.2 6.4-4.8 11.2-11.2 11.2-19.2 4.8-38.4 38.4-68.8 76.8-68.8s72 28.8 76.8 68.8c1.6 8 4.8 14.4 11.2 19.2 9.6 1.6 17.6 3.2 25.6 1.6 41.6-11.2 81.6-27.2 118.4-49.6 6.4-3.2 11.2-11.2 12.8-19.2s0-16-4.8-22.4c-24-30.4-20.8-75.2 6.4-102.4s73.6-28.8 102.4-6.4c6.4 4.8 14.4 6.4 22.4 4.8s14.4-6.4 17.6-12.8c22.4-36.8 38.4-76.8 49.6-118.4 1.6-8 0-16-3.2-22.4-4.8-6.4-11.2-11.2-19.2-11.2-38.4-4.8-68.8-38.4-68.8-76.8s28.8-72 68.8-76.8c8-1.6 14.4-4.8 19.2-11.2s6.4-14.4 3.2-22.4c-11.2-41.6-27.2-81.6-49.6-118.4-4.8-6.4-11.2-11.2-17.6-12.8-8-1.6-16 0-22.4 4.8-30.4 24-76.8 20.8-102.4-6.4-27.2-27.2-30.4-72-6.4-102.4 4.8-6.4 6.4-14.4 4.8-22.4s-6.4-14.4-12.8-17.6c-36.8-22.4-76.8-38.4-118.4-49.6-8-1.6-16 0-22.4 3.2-6.4 4.8-11.2 11.2-11.2 19.2-4.8 38.4-38.4 68.8-76.8 68.8s-72-28.8-76.8-68.8c-1.6-8-4.8-14.4-11.2-19.2-8-3.2-12.8-4.8-17.6-4.8zM512 401.6c-25.6 0-46.4 20.8-46.4 46.4s20.8 46.4 46.4 46.4c25.6 0 46.4-20.8 46.4-46.4s-20.8-46.4-46.4-46.4zM512 568c-65.6 0-120-52.8-120-120s52.8-120 120-120c65.6 0 120 52.8 120 120s-54.4 120-120 120z" />
<glyph unicode="&#xe900;" glyph-name="account" d="M259.2 721.6h505.6c38.4 0 68.8-30.4 68.8-68.8v-411.2c0-36.8-30.4-68.8-68.8-68.8h-28.8c-9.6 1.6-17.6 9.6-17.6 20.8 0 1.6 0 3.2 1.6 4.8 1.6 6.4 3.2 12.8 3.2 19.2 0 36.8-30.4 67.2-67.2 67.2s-67.2-30.4-67.2-67.2c0-6.4 0-11.2 1.6-17.6 0-3.2 1.6-4.8 1.6-6.4 0-9.6-8-19.2-17.6-20.8h-120c-9.6 1.6-17.6 9.6-17.6 20.8 0 3.2 0 4.8 1.6 6.4 1.6 4.8 1.6 11.2 1.6 17.6 0 36.8-30.4 67.2-67.2 67.2-38.4 0-67.2-30.4-67.2-67.2 0-6.4 0-12.8 3.2-19.2 0-1.6 1.6-3.2 1.6-4.8 0-9.6-8-19.2-17.6-20.8h-28.8c-38.4 0-68.8 30.4-68.8 68.8v411.2c-4.8 38.4 25.6 68.8 64 68.8zM654.4 414.4l-80 33.6c-12.8 4.8-12.8 20.8-12.8 27.2v1.6c9.6 11.2 16 24 20.8 40 0 0-3.2 0 0 0 4.8 0 16 14.4 17.6 33.6 1.6 17.6-1.6 32-9.6 35.2 0 0-1.6 0-1.6 0-1.6 43.2-36.8 76.8-78.4 76.8s-75.2-32-78.4-73.6v-3.2c-8 0-12.8-16-11.2-35.2s14.4-33.6 17.6-33.6c4.8 0 0 0 0 0 4.8-14.4 11.2-28.8 19.2-40v0c0-4.8 0-22.4-12.8-27.2l-78.4-35.2c-9.6-3.2-33.6-16-33.6-40v-19.2c0-8 6.4-16 16-16h323.2c8 0 16 6.4 16 16v19.2c0 24-25.6 35.2-33.6 40z" />
<glyph unicode="&#xe901;" glyph-name="calendar" d="M342.4 486.4h78.4v-78.4h-78.4v78.4zM473.6 409.6h78.4v78.4h-78.4v-78.4zM603.2 409.6h78.4v78.4h-78.4v-78.4zM342.4 278.4h78.4v78.4h-78.4v-78.4zM473.6 278.4h78.4v78.4h-78.4v-78.4zM603.2 278.4h78.4v78.4h-78.4v-78.4zM734.4 646.4c0-16-11.2-28.8-25.6-28.8s-25.6 12.8-25.6 28.8v72c0 16 11.2 28.8 25.6 28.8s25.6-12.8 25.6-28.8v-72zM368 718.4c0 16-11.2 28.8-25.6 28.8s-25.6-12.8-25.6-28.8v-72c0-16 11.2-28.8 25.6-28.8s25.6 12.8 25.6 28.8v72zM750.4 670.4v-27.2c0-32-25.6-57.6-59.2-57.6-32 0-59.2 25.6-59.2 57.6v27.2h-240v-27.2c0-32-25.6-57.6-59.2-57.6-32 0-59.2 25.6-59.2 57.6v27.2h-64v-521.6h600v521.6h-59.2zM264 539.2h496v-339.2h-496v339.2z" />
<glyph unicode="&#xe902;" glyph-name="caret-down" d="M284.8 595.2l227.2-294.4 227.2 294.4z" />
<glyph unicode="&#xe903;" glyph-name="caret-up" d="M739.2 300.8l-227.2 294.4-227.2-294.4z" />
<glyph unicode="&#xe904;" glyph-name="camera" d="M651.2 412.8c0-49.6-40-88-88-88-49.6 0-88 40-88 88 0 49.6 40 88 88 88s88-40 88-88zM854.4 627.2v-443.2h-684.8v443.2h188.8c19.2 0 35.2 11.2 44.8 27.2l30.4 57.6h256l33.6-59.2c8-16 25.6-25.6 43.2-25.6h88zM344 531.2c0 19.2-16 33.6-33.6 33.6-19.2 0-33.6-16-33.6-33.6 0-19.2 16-33.6 33.6-33.6 17.6-1.6 33.6 14.4 33.6 33.6zM726.4 412.8c0 91.2-73.6 161.6-164.8 161.6s-164.8-70.4-164.8-161.6c0-91.2 73.6-164.8 164.8-164.8s164.8 73.6 164.8 164.8zM323.2 699.2h-108.8v-44.8h108.8v44.8z" />
<glyph unicode="&#xe905;" glyph-name="delete" d="M512 398.4l-224-224-46.4 44.8 225.6 225.6-225.6 225.6 44.8 44.8 225.6-225.6 225.6 225.6 44.8-44.8-225.6-225.6 225.6-225.6-46.4-44.8z" />
<glyph unicode="&#xe906;" glyph-name="edit" d="M529.6 374.4l-14.4 22.4c0 1.6-1.6 3.2-3.2 3.2s-4.8 0-4.8-1.6l-36.8-62.4c-1.6-1.6-1.6-4.8 0-8 1.6-1.6 4.8-3.2 6.4-1.6l62.4 14.4 8 1.6c1.6 0 3.2 3.2 4.8 4.8 0 1.6 0 4.8-1.6 4.8-6.4 4.8-16 16-20.8 22.4zM696 219.2h-396.8v496h395.2v-129.6l-134.4-100.8c-9.6-8-17.6-17.6-22.4-28.8 6.4-1.6 11.2-4.8 16-9.6 6.4-8 6.4-17.6 1.6-25.6 9.6 1.6 19.2-1.6 24-9.6 6.4-8 6.4-17.6 1.6-25.6 9.6 1.6 19.2-1.6 24-9.6 4.8-4.8 4.8-11.2 4.8-17.6 11.2 1.6 24 6.4 33.6 12.8l272 203.2-84.8 113.6-88-65.6v68.8c0 40-28.8 73.6-64 73.6h-363.2c-35.2 0-65.6-33.6-65.6-73.6v-444.8c0-41.6 28.8-73.6 65.6-73.6h364.8c35.2 0 64 33.6 64 73.6v128l-48-38.4v-116.8z" />
<glyph unicode="&#xe907;" glyph-name="check" d="M245.886 567.356l295.285-295.285-112.005-112.005-295.285 295.285 112.005 112.005zM888.173 620.305l-458.201-458.201-110.873 110.873 458.201 458.201 110.873-110.873z" />
<glyph unicode="&#xe908;" glyph-name="book" d="M256 89.6c-40 0-72 33.6-72 73.6v572.8c0 40 32 73.6 72 73.6h518.4c40 0 72-33.6 72-73.6v-572.8c0-40-32-73.6-72-73.6h-518.4zM312 134.4h443.2c27.2 0 48 22.4 48 48v534.4c0 27.2-22.4 48-48 48h-443.2v-630.4zM248 764.8c-11.2 0-20.8-9.6-20.8-20.8v-592c0-11.2 9.6-20.8 20.8-20.8s20.8 9.6 20.8 20.8v592c0 12.8-9.6 20.8-20.8 20.8zM403.2 315.2c-12.8 0-22.4 9.6-22.4 22.4s9.6 22.4 22.4 22.4h310.4c12.8 0 22.4-9.6 22.4-22.4s-9.6-22.4-22.4-22.4h-310.4zM403.2 456c-12.8 0-22.4 9.6-22.4 22.4s9.6 22.4 22.4 22.4h310.4c12.8 0 22.4-9.6 22.4-22.4s-9.6-22.4-22.4-22.4h-310.4zM403.2 596.8c-12.8 0-22.4 9.6-22.4 22.4s9.6 22.4 22.4 22.4h310.4c12.8 0 22.4-9.6 22.4-22.4s-9.6-22.4-22.4-22.4h-310.4z" />
<glyph unicode="&#xe909;" glyph-name="card2" d="M252.8 153.6c-54.4 0-92.8 35.2-92.8 84.8v267.2h729.6v-267.2c0-48-41.6-84.8-96-84.8h-540.8zM203.2 238.4c0-19.2 28.8-44.8 49.6-44.8h544c20.8 0 49.6 27.2 49.6 44.8v227.2h-643.2v-227.2zM475.2 283.2v40h156.8v-40h-156.8zM246.4 283.2v40h185.6v-40h-185.6zM160 569.6v81.6c0 49.6 40 88 92.8 88h544c52.8 0 92.8-38.4 92.8-88v-81.6h-729.6zM846.4 609.6v44.8c0 19.2-28.8 44.8-49.6 44.8h-544c-20.8 0-49.6-27.2-49.6-44.8v-44.8h643.2z" />
<glyph unicode="&#xe90a;" glyph-name="graph" d="M265.6 78.4c-25.6 0-46.4 24-46.4 52.8v532.8c0 28.8 20.8 52.8 46.4 52.8h470.4c25.6 0 46.4-24 46.4-52.8v-532.8c0-28.8-20.8-52.8-46.4-52.8h-470.4zM276.8 672c-9.6 0-17.6-9.6-17.6-20.8v-508.8c0-11.2 8-20.8 17.6-20.8h448c9.6 0 17.6 9.6 17.6 20.8v508.8c0 11.2-8 20.8-17.6 20.8h-448zM838.4 163.2c-11.2 0-20.8 9.6-20.8 22.4v571.2h-502.4c-11.2 0-20.8 9.6-20.8 22.4s9.6 22.4 20.8 22.4h523.2c11.2 0 20.8-9.6 20.8-22.4v-593.6c-1.6-12.8-9.6-22.4-20.8-22.4zM315.2 163.2c-6.4 0-11.2 3.2-16 6.4-8 9.6-8 22.4 0 32l97.6 166.4c4.8 6.4 9.6 8 16 8 3.2 0 6.4 0 8-1.6s4.8-1.6 6.4-4.8l129.6-72 115.2 184c4.8 4.8 9.6 8 16 8 4.8 0 11.2-3.2 14.4-6.4 8-8 8-22.4 0-30.4l-123.2-196.8c-4.8-4.8-9.6-8-16-8 0 0 0 0 0 0-6.4 0-11.2 1.6-14.4 6.4l-128 72-91.2-155.2c-3.2-4.8-9.6-8-14.4-8z" />
<glyph unicode="&#xe90b;" glyph-name="handing" d="M620.8 118.4c-35.2 0-88 20.8-137.6 40-32 12.8-64 25.6-81.6 28.8-9.6 1.6-25.6 3.2-44.8 3.2s-40-1.6-54.4-1.6v-41.6h-198.4v329.6h198.4v-22.4c4.8 1.6 8 3.2 12.8 4.8-4.8 20.8-8 43.2-8 64 0 156.8 128 284.8 284.8 284.8s284.8-128 284.8-284.8c0-36.8-6.4-70.4-19.2-104 6.4 1.6 11.2 1.6 17.6 1.6 1.6 0 4.8 0 6.4 0 16-1.6 30.4-9.6 40-24 9.6-12.8 12.8-30.4 9.6-44.8-20.8-81.6-188.8-224-302.4-235.2-3.2 1.6-6.4 1.6-8 1.6zM355.2 228.8c22.4 0 40-1.6 52.8-3.2 22.4-3.2 54.4-16 89.6-30.4 44.8-17.6 96-38.4 123.2-38.4 1.6 0 3.2 0 4.8 0 80 8 248 126.4 267.2 204.8 1.6 3.2 0 8-3.2 12.8-3.2 3.2-6.4 6.4-11.2 6.4-1.6 0-1.6 0-3.2 0-32 0-75.2-38.4-118.4-76.8-46.4-40-88-78.4-128-84.8-3.2 0-6.4 0-11.2 0-44.8 0-118.4 35.2-136 72-6.4 11.2-11.2 38.4-4.8 56 3.2 11.2 11.2 16 16 19.2 3.2 1.6 8 3.2 12.8 3.2 17.6 0 44.8-11.2 94.4-33.6 8-3.2 22.4-9.6 24-11.2 0 0 1.6 0 3.2 0 8 0 22.4 6.4 27.2 12.8 0 1.6 1.6 3.2-4.8 9.6-25.6 25.6-203.2 92.8-246.4 92.8-16 0-62.4-14.4-102.4-28.8v-185.6c16 1.6 35.2 3.2 54.4 3.2zM262.4 185.6v251.2h-118.4v-251.2h118.4zM513.6 328c0-6.4 1.6-14.4 3.2-19.2 9.6-20.8 68.8-49.6 99.2-49.6 1.6 0 3.2 0 4.8 0 28.8 4.8 68.8 40 107.2 73.6 22.4 19.2 46.4 41.6 70.4 57.6 25.6 40 38.4 84.8 38.4 132.8 0 136-110.4 246.4-246.4 246.4s-246.4-110.4-246.4-246.4c0-17.6 1.6-35.2 6.4-52.8 24 6.4 40 9.6 51.2 9.6 36.8 0 131.2-32 198.4-62.4 9.6-3.2 17.6-8 25.6-12.8l8-3.2c20.8-11.2 35.2-19.2 43.2-27.2 17.6-17.6 20.8-38.4 11.2-57.6-11.2-19.2-36.8-33.6-60.8-33.6-4.8 0-9.6 0-12.8 1.6-4.8 1.6-12.8 4.8-30.4 12.8-14.4 8-52.8 25.6-70.4 30.4zM184 403.2h40v-68.8h-40v68.8zM496 619.2h25.6v-65.6c3.2 4.8 6.4 11.2 9.6 16l36.8 49.6h32l-48-60.8 51.2-81.6h-30.4l-40 65.6-11.2-14.4v-49.6h-25.6v140.8zM617.6 617.6c9.6 1.6 24 3.2 38.4 3.2 20.8 0 33.6-3.2 43.2-11.2 8-6.4 12.8-16 12.8-28.8 0-17.6-12.8-30.4-25.6-35.2v0c9.6-3.2 16-14.4 19.2-27.2 4.8-17.6 8-33.6 11.2-40h-27.2c-1.6 4.8-4.8 16-9.6 33.6-3.2 19.2-11.2 24-25.6 24h-12.8v-57.6h-25.6v139.2zM643.2 555.2h16c17.6 0 28.8 9.6 28.8 24 0 16-11.2 22.4-27.2 22.4-8 0-12.8 0-16-1.6v-44.8z" />
<glyph unicode="&#xe90c;" glyph-name="umbrella" d="M628.8 64c-68.8 0-124.8 56-124.8 124.8v196.8h-352c0 0 0 49.6 0 52.8 0 206.4 168 374.4 374.4 374.4s374.4-168 374.4-374.4c0-3.2 0-52.8 0-52.8h-352v-196.8c0-44.8 35.2-80 80-80s80 35.2 80 80v8h44.8v-8c1.6-68.8-54.4-124.8-124.8-124.8zM856 432c0 1.6 0 4.8 0 6.4 0 182.4-147.2 329.6-329.6 329.6s-329.6-147.2-329.6-329.6c0-1.6 0-4.8 0-6.4h659.2z" />
<glyph unicode="&#xe90d;" glyph-name="chevron-down" d="M326.4 579.2l185.6-184 185.6 184 38.4-40-224-222.4-224 222.4z" />
<glyph unicode="&#xe90e;" glyph-name="chevron-up" d="M697.6 316.8l-185.6 184-185.6-184-38.4 40 224 222.4 224-222.4z" />
<glyph unicode="&#xe90f;" glyph-name="pencil" d="M329.6 201.6l-30.4 28.8c-3.2 3.2-6.4 3.2-9.6 3.2s-6.4-1.6-8-6.4l-30.4-108.8c-1.6-3.2 0-8 3.2-11.2 3.2-1.6 8-1.6 11.2 0l91.2 46.4 11.2 6.4c3.2 1.6 4.8 4.8 4.8 9.6 0 3.2-3.2 6.4-6.4 8-9.6 3.2-28.8 17.6-36.8 24zM332.8 385.6c-12.8-16-20.8-33.6-24-52.8 9.6 1.6 20.8-1.6 28.8-8 12.8-9.6 17.6-25.6 14.4-40 14.4 6.4 28.8 4.8 41.6-4.8s17.6-25.6 14.4-40c14.4 6.4 30.4 4.8 41.6-4.8 8-6.4 12.8-16 14.4-25.6 17.6 6.4 33.6 19.2 46.4 33.6l339.2 424-177.6 140.8-339.2-422.4z" />
</font>
</defs>
</svg>
