<?xml version="1.0" encoding="utf-8"?>
<!-- Generator: Adobe Illustrator 18.1.1, SVG Export Plug-In . SVG Version: 6.00 Build 0)  -->
<svg version="1.1" id="Layer_1" xmlns:sketch="http://www.bohemiancoding.com/sketch/ns"
	 xmlns="http://www.w3.org/2000/svg" xmlns:xlink="http://www.w3.org/1999/xlink" x="0px" y="0px" viewBox="-38 116 182 30"
	 enable-background="new -38 116 182 30" xml:space="preserve">
<title>Group Copy 3</title>
<desc>Created with Sketch.</desc>
<g id="Navigasjonsstruktur---research" sketch:type="MSPage">
	<g id="M-27-bsu-kort-Copy-3" transform="translate(-96.000000, -35.686108)" sketch:type="MSArtboardGroup">
		<g id="Group-Copy-3" transform="translate(96.940983, 35.863084)" sketch:type="MSLayerGroup">
			<path id="Fill-6" sketch:type="MSShapeGroup" fill="#FFFFFF" d="M6.9,127.2c-1.1,0-2.4,0.7-3,1.6v5.3c0.5,1,1.7,1.8,2.9,1.8
				c2.2,0,3.3-1.8,3.3-4.4C10.1,128.5,8.7,127.2,6.9,127.2L6.9,127.2z M6.9,136.9c-1.1,0-2.3-0.4-3-1.3v5.4c0,0.3-0.2,0.3-0.4,0.3
				H2.8c-0.2,0-0.3-0.1-0.3-0.4v-14.3c0-0.3,0.1-0.3,0.3-0.3h0.5c0.3,0,0.4,0.1,0.4,0.4v0.8c0.7-0.9,2.1-1.5,3.3-1.5
				c2.5,0,4.4,1.8,4.4,5.3C11.5,134.4,9.9,136.9,6.9,136.9L6.9,136.9z"/>
			<path id="Fill-7" sketch:type="MSShapeGroup" fill="#FFFFFF" d="M21.2,129c-0.6-1.2-1.7-1.8-2.9-1.8c-1.8,0-3.2,1.7-3.2,4.4
				c0,2.7,1.4,4.1,2.9,4.1c1.6,0,2.8-1.3,3.2-2.6V129L21.2,129z M23.3,136.7h-0.8c-0.8,0-1.2-0.7-1.2-1.6v-0.3c-0.4,1.1-1.9,2-3.3,2
				c-2.9,0-4.2-2.5-4.2-5.2c0-3.5,2-5.6,4.5-5.6c1,0,2.2,0.4,2.9,1.4l0-0.8c0-0.3,0.1-0.3,0.4-0.3h0.7c0.2,0,0.3,0.1,0.3,0.4v7.6
				c0,0.6,0,1,0.1,1.2c0.1,0.2,0.2,0.3,0.4,0.3h0.2c0.2,0,0.2,0,0.2,0.2v0.5C23.5,136.7,23.5,136.7,23.3,136.7L23.3,136.7z"/>
			<path id="Fill-8" sketch:type="MSShapeGroup" fill="#FFFFFF" d="M30.6,127.1c0,0.1-0.1,0.2-0.2,0.2h0c-0.2,0-0.4-0.1-0.7-0.1
				c-0.8,0-1.6,0.6-2.2,1.4v7.7c0,0.3-0.1,0.4-0.3,0.4h-0.7c-0.2,0-0.3-0.1-0.3-0.4v-9.6c0-0.3,0.1-0.4,0.3-0.4h0.7
				c0.2,0,0.3,0.1,0.3,0.4l0,0.8c0.4-0.6,1.3-1.4,2.4-1.4c0.1,0,0.4,0,0.6,0.1c0.1,0,0.2,0.1,0.2,0.2v0L30.6,127.1"/>
			<path id="Fill-9" sketch:type="MSShapeGroup" fill="#FFFFFF" d="M36.6,127.2c-2,0-3.1,1.6-3.3,3.4h6c0-0.1,0-0.3,0-0.4
				C39.2,128.5,38.4,127.2,36.6,127.2L36.6,127.2z M40,131.6h-6.8c0,2.3,1.1,4.2,3.6,4.2c0.9,0,2-0.2,2.7-0.5c0.1,0,0.1,0,0.1,0
				c0.1,0,0.2,0.1,0.2,0.2l0.1,0.5c0,0.1,0,0.1,0,0.2c0,0.1-0.1,0.2-0.2,0.2c-0.9,0.4-2.2,0.6-3.1,0.6c-3.3,0-4.9-2.2-4.9-5.4
				c0-3,1.8-5.4,4.8-5.4c2.5,0,4,1.9,4,4.5v0.4C40.6,131.5,40.5,131.6,40,131.6L40,131.6z"/>
			<path id="Fill-10" sketch:type="MSShapeGroup" fill="#FFFFFF" d="M46.3,127.4c-1.1,0-2.3,0.7-3,1.5v5.5c0.6,1,1.7,1.7,2.8,1.7
				c2.3,0,3.3-1.9,3.3-4.2C49.4,129.1,48.5,127.4,46.3,127.4L46.3,127.4z M46.2,137.1c-1.2,0-2.3-0.6-3-1.4l0,0.8
				c0,0.3-0.1,0.4-0.4,0.4h-0.5c-0.2,0-0.3-0.1-0.3-0.3v-14.4c0-0.3,0-0.3,0.3-0.4l0.8-0.1H43c0.2,0,0.3,0.1,0.3,0.3v5.7
				c0.7-0.7,1.8-1.4,3.3-1.4c3.1,0,4.4,2.5,4.4,5.4C50.8,134.6,49.4,137.1,46.2,137.1L46.2,137.1z"/>
			<path id="Fill-11" sketch:type="MSShapeGroup" fill="#FFFFFF" d="M60.6,129c-0.6-1.2-1.7-1.8-2.9-1.8c-1.8,0-3.2,1.7-3.2,4.4
				c0,2.7,1.4,4.1,2.9,4.1c1.6,0,2.8-1.3,3.2-2.6V129L60.6,129z M62.7,136.7h-0.8c-0.8,0-1.2-0.7-1.2-1.6v-0.3c-0.4,1.1-1.9,2-3.3,2
				c-2.9,0-4.2-2.5-4.2-5.2c0-3.5,2-5.6,4.5-5.6c1,0,2.2,0.4,2.9,1.4l0-0.8c0-0.3,0.1-0.3,0.4-0.3h0.7c0.2,0,0.3,0.1,0.3,0.4v7.6
				c0,0.6,0,1,0.1,1.2c0.1,0.2,0.2,0.3,0.4,0.3h0.2c0.2,0,0.2,0,0.2,0.2v0.5C62.9,136.7,62.9,136.7,62.7,136.7L62.7,136.7z"/>
			<path id="Fill-12" sketch:type="MSShapeGroup" fill="#FFFFFF" d="M72.4,136.7h-0.7c-0.2,0-0.3-0.1-0.3-0.4v-6.1
				c0-1.7-0.4-3-2.4-3c-1.1,0-2.4,0.6-3.2,1.4v7.7c0,0.3-0.1,0.4-0.3,0.4h-0.7c-0.2,0-0.3-0.1-0.3-0.4v-9.6c0-0.3,0.1-0.4,0.3-0.4
				h0.7c0.2,0,0.3,0.1,0.3,0.4l0,0.7c1-0.9,2.4-1.3,3.6-1.3c2.5,0,3.4,1.5,3.4,3.9v6.3C72.8,136.6,72.6,136.7,72.4,136.7"/>
			<path id="Fill-13" sketch:type="MSShapeGroup" fill="#FFFFFF" d="M82.5,136.9h-0.8c-0.3,0-0.5-0.1-0.6-0.3l-3.5-5l-0.6,0.7v4.3
				c0,0.3-0.1,0.4-0.3,0.4H76c-0.2,0-0.3-0.1-0.3-0.4v-14.4c0-0.3,0-0.3,0.3-0.4l0.8-0.1h0.1c0.2,0,0.3,0.1,0.3,0.3v8.7h0l3.6-3.9
				c0.1-0.2,0.2-0.2,0.4-0.2h1.1c0.1,0,0.1,0,0.1,0.1c0,0,0,0.1-0.1,0.2l-3.6,3.9l4.1,5.8c0.1,0.1,0.1,0.2,0.1,0.3
				C82.8,136.8,82.7,136.9,82.5,136.9"/>
			<path id="Fill-14" sketch:type="MSShapeGroup" fill="#FFFFFF" d="M88.3,127.2c-2,0-3.1,1.6-3.3,3.4h6c0-0.1,0-0.3,0-0.4
				C91,128.5,90.1,127.2,88.3,127.2L88.3,127.2z M91.8,131.6h-6.8c0,2.3,1.1,4.2,3.6,4.2c0.9,0,2-0.2,2.7-0.5c0.1,0,0.1,0,0.1,0
				c0.1,0,0.2,0.1,0.2,0.2l0.1,0.5c0,0.1,0,0.1,0,0.2c0,0.1-0.1,0.2-0.2,0.2c-0.9,0.4-2.2,0.6-3.1,0.6c-3.3,0-4.9-2.2-4.9-5.4
				c0-3,1.8-5.4,4.8-5.4c2.5,0,4,1.9,4,4.5v0.4C92.3,131.5,92.3,131.6,91.8,131.6L91.8,131.6z"/>
			<path id="Fill-15" sketch:type="MSShapeGroup" fill="#FFFFFF" d="M102.8,136.7h-0.7c-0.2,0-0.3-0.1-0.3-0.4v-6.1
				c0-1.7-0.4-3-2.4-3c-1.1,0-2.4,0.6-3.2,1.4v7.7c0,0.3-0.1,0.4-0.3,0.4h-0.7c-0.2,0-0.3-0.1-0.3-0.4v-9.6c0-0.3,0.1-0.4,0.3-0.4
				h0.7c0.2,0,0.3,0.1,0.3,0.4l0,0.7c1-0.9,2.4-1.3,3.6-1.3c2.5,0,3.4,1.5,3.4,3.9v6.3C103.1,136.6,103,136.7,102.8,136.7"/>
			<path id="Fill-16" sketch:type="MSShapeGroup" fill="#FFFFFF" d="M116.3,123.3c0-0.1,0-0.1,0-0.2c0-0.1,0-0.3-0.5-0.3h-1
				c-0.4,0-0.6,0.1-0.8,0.5l-3.8,11.3l-4-11.4c-0.1-0.4-0.3-0.5-0.8-0.5h-1.2c-0.3,0-0.5,0.1-0.5,0.4c0,0.1,0,0.2,0.1,0.3l0,0
				l5.1,13.9c0.1,0.4,0.3,0.5,0.7,0.5h1c0.3,0,0.5-0.2,0.7-0.5L116.3,123.3L116.3,123.3"/>
			<path id="Fill-17" sketch:type="MSShapeGroup" fill="#FFFFFF" d="M123.5,130.6h-5.2c0.2-1.3,1-2.8,2.8-2.8c1.7,0,2.3,1.4,2.3,2.6
				V130.6L123.5,130.6z M121.3,126.1c-3,0-5.1,2.3-5.1,5.5c0,3.5,1.9,5.5,5.2,5.5c0.9,0,2.3-0.2,3.3-0.6c0.2-0.1,0.3-0.2,0.3-0.4
				c0,0,0-0.1,0-0.2l0,0l-0.2-0.8c0-0.2-0.2-0.3-0.4-0.3c-0.1,0-0.1,0-0.2,0l0,0h0c-0.7,0.3-1.7,0.4-2.5,0.4c-1.9,0-3.2-1.3-3.3-3.4
				h6.5c0.6,0,0.8-0.1,0.8-0.7V131c0-1.5-0.4-2.8-1.3-3.6C123.5,126.6,122.5,126.1,121.3,126.1L121.3,126.1z"/>
			<path id="Fill-18" sketch:type="MSShapeGroup" fill="#FFFFFF" d="M131.4,131l-1.7-0.7c-1-0.4-1.3-0.7-1.3-1.3
				c0-0.7,0.7-1.2,1.7-1.2c0.7,0,1.7,0.3,2.2,0.5l0,0c0.1,0,0.1,0,0.2,0c0.2,0,0.3-0.1,0.3-0.3l0.2-0.7c0-0.1,0-0.1,0-0.2
				c0-0.2-0.1-0.3-0.3-0.3c-0.9-0.4-1.8-0.6-2.8-0.6c-1.9,0-3.7,0.9-3.7,3c0,1.3,0.8,2.2,2.3,2.8l1.4,0.6c1.1,0.4,1.5,0.9,1.5,1.6
				c0,0.9-0.8,1.5-2,1.5c-0.6,0-1.6-0.2-2.5-0.6c-0.1,0-0.1,0-0.2,0c-0.2,0-0.3,0.1-0.3,0.3l-0.3,0.8l0,0c0,0.1,0,0.1,0,0.2
				c0,0.2,0.1,0.3,0.3,0.4c0.4,0.2,1.7,0.7,3,0.7c2.4,0,4.1-1.3,4.1-3.3C133.6,132.3,132.4,131.5,131.4,131"/>
			<path id="Fill-19" sketch:type="MSShapeGroup" fill="#FFFFFF" d="M142.3,136.8L142.3,136.8L142.3,136.8l-0.2-0.7
				c0-0.2-0.2-0.3-0.4-0.3c-0.1,0-0.1,0-0.2,0l0,0c-0.4,0.1-0.9,0.3-1.3,0.3c-0.5,0-0.9-0.1-1.1-0.4c-0.3-0.3-0.3-0.8-0.3-1.6v-5.7
				h2.4c0.1,0,0.4,0,0.4-0.4v-0.7c0-0.3-0.2-0.4-0.4-0.4h-2.4v-2.5c0-0.3-0.2-0.5-0.4-0.5h-0.1l0,0l-1.1,0.1
				c-0.3,0.1-0.5,0.2-0.5,0.5v2.3h-1.1c-0.3,0-0.4,0.1-0.4,0.4v0.7c0,0.3,0.1,0.4,0.4,0.4h1.1v5.5c0,1.4,0,2.2,0.7,3
				c0.5,0.5,1.4,0.8,2.4,0.8c0.7,0,1.5-0.2,2-0.4C142.2,137.3,142.3,137.1,142.3,136.8C142.3,136.9,142.3,136.9,142.3,136.8"/>
			<path id="Fill-3" sketch:type="MSShapeGroup" fill="#FFFFFF" d="M-28.5,120.4c0.7-1.5,1.2-2.2,1.5-2.6c4.9-1.5,10.7-2.5,12.9-1.1
				c0.6,0.4,1.1,1.2,1.4,2.2c0.1,0.3,0.2,0.7,0.2,0.9c0.2,1.4-0.4,2.2-1.1,3.2c-3.5,5.4-12.8,10.8-15.7,10.8
				C-31,133.7-33.1,130.3-28.5,120.4"/>
			<path id="Fill-4" sketch:type="MSShapeGroup" fill="#FFFFFF" d="M-32.1,139.5c0,0-3.2-9.3,4.7-21.2c-3.1,1-5.8,2.2-6.6,3
				c-2.2,2.1-6.3,21-2.5,23.7c3.9,2.7,18.4-4.5,20.9-6.4c1.6-1.2,3.5-8.4,3.6-14.3C-18.8,132.6-32.1,139.5-32.1,139.5"/>
			<path id="Fill-5" sketch:type="MSShapeGroup" fill="#FFFFFF" d="M-3.9,136.8c-1.1,0-2.2-0.2-3.3-0.6c-0.2-0.1-0.3-0.1-0.3-0.3
				c0,0,0-0.1,0-0.2l0.2-0.7c0-0.1,0.1-0.2,0.2-0.2c0.1,0,0.1,0,0.2,0c0.9,0.3,2,0.6,3,0.6c1.7,0,3.3-0.8,3.3-2.7
				c0-1.3-0.9-2.1-2.1-2.8l-2.7-1.5c-1.4-0.8-2.3-1.9-2.3-3.4c0-2.4,2.1-3.6,4.3-3.6c1.2,0,2.1,0.2,3.2,0.6c0.2,0.1,0.3,0.2,0.3,0.3
				c0,0,0,0.1,0,0.1l-0.2,0.6c0,0.1-0.1,0.2-0.3,0.2c-0.1,0-0.1,0-0.2,0c-0.9-0.3-1.8-0.6-2.7-0.6c-0.8,0-1.5,0.2-2,0.6
				c-0.5,0.4-0.8,0.9-0.8,1.6c0,1.2,0.8,2,1.8,2.5l2.2,1.3c1.7,0.9,3,2,3,4C0.9,135.6-1.4,136.8-3.9,136.8"/>
		</g>
	</g>
</g>
<rect x="-399" y="-205" fill="#FFFFFF" stroke="#000000" stroke-miterlimit="10" width="250" height="41.2"/>
</svg>
