<svg xmlns:x="http://ns.adobe.com/Extensibility/1.0/" xmlns:i="http://ns.adobe.com/AdobeIllustrator/10.0/" xmlns:graph="http://ns.adobe.com/Graphs/1.0/" xmlns="http://www.w3.org/2000/svg" xmlns:xlink="http://www.w3.org/1999/xlink" class="banner_logo_large" version="1.1" id="Layer_1" x="0px" y="0px" viewBox="0 0 130 85" enable-background="new 0 0 130 85" xml:space="preserve">
  <g>
    <g class="logo">
      <path d="M24.067 47.82l4.261 6.372h-4.131L21.9 50.543l-2.316 3.649h-4.038l4.261-6.335 -4.446-6.632h4.131l2.482 3.909 2.501-3.909h4.038L24.067 47.82z"/>
      <path d="M29.884 41.225h5.557c3.279 0 5.39 1.686 5.39 4.557v0.037c0 3.056-2.353 4.668-5.576 4.668h-1.778v3.705h-3.594V41.225zM35.182 47.671c1.278 0 2.056-0.667 2.056-1.686v-0.037c0-1.111-0.778-1.704-2.075-1.704h-1.686v3.427H35.182z"/>
      <path d="M54.739 41.225h6.131c1.982 0 3.353 0.519 4.224 1.408 0.759 0.741 1.149 1.741 1.149 3.019v0.037c0 1.982-1.056 3.297-2.668 3.983l3.093 4.52h-4.149l-2.612-3.927H59.87h-1.537v3.927h-3.594V41.225zM60.703 47.449c1.223 0 1.926-0.593 1.926-1.537v-0.037c0-1.019-0.741-1.537-1.945-1.537h-2.353v3.112H60.703z"/>
      <path d="M68.151 41.225h3.612v12.967h-3.612V41.225z"/>
      <path d="M86.712 41.225h3.353l5.335 6.854v-6.854h3.557v12.967h-3.149l-5.539-7.113v7.113h-3.557V41.225z"/>
      <path d="M100.587 47.745v-0.037c0-3.779 2.908-6.743 6.835-6.743 2.649 0 4.353 1.112 5.502 2.705l-2.705 2.093c-0.741-0.926-1.593-1.519-2.834-1.519 -1.815 0-3.093 1.537-3.093 3.427v0.037c0 1.945 1.278 3.464 3.093 3.464 1.352 0 2.149-0.63 2.927-1.575l2.705 1.926c-1.223 1.686-2.871 2.927-5.743 2.927C103.57 54.451 100.587 51.617 100.587 47.745z"/>
      <polygon points="7.25 51.135 7.25 49.079 12.412 49.079 12.412 46.245 7.25 46.245 7.25 44.281 14.122 44.281 14.122 41.225 3.693 41.225 3.693 46.245 0.25 46.245 0.25 49.079 3.693 49.079 3.693 54.192 14.195 54.192 14.195 51.135 "/>
      <circle cx="128.022" cy="39.501" r="1.728"/>
      <polygon points="118.151 51.135 118.151 49.079 123.313 49.079 123.313 46.245 118.151 46.245 118.151 44.281 125.023 44.281 125.023 41.225 114.594 41.225 114.594 54.192 125.116 54.192 125.116 51.135 "/>
      <polygon points="77.691 51.135 77.691 49.079 82.853 49.079 82.853 46.245 77.691 46.245 77.691 44.281 84.563 44.281 84.563 41.225 74.134 41.225 74.134 54.192 84.656 54.192 84.656 51.135 "/>
      <polygon points="45.889 51.135 45.889 49.079 51.051 49.079 51.051 46.245 45.889 46.245 45.889 44.281 52.761 44.281 52.761 41.225 42.332 41.225 42.332 54.192 52.854 54.192 52.854 51.135 "/>
    </g>
    <g class="logo">
      <path d="M9.793 32.71H8.918c-0.274 0-0.307 0.034-0.625 0.353 -0.16 0.16-2.794 2.814-2.794 2.814v-4.428c0-0.149-0.081-0.231-0.231-0.231H3.93c-0.149 0-0.231 0.082-0.231 0.231v0.595c0 0.15 0.081 0.232 0.231 0.232h0.49v5.461H3.932c-0.149 0-0.23 0.081-0.23 0.23v0.595c0 0.149 0.081 0.233 0.23 0.233h2.049c0.149 0 0.231-0.081 0.231-0.231V37.97c0-0.15-0.082-0.232-0.231-0.232H5.5v-0.442l1.049-1.065 1.847 2.257c0.243 0.308 0.243 0.308 0.599 0.308h0.798c0.148 0 0.23-0.081 0.23-0.231V37.97c0-0.149-0.082-0.23-0.23-0.23H9.134l-1.837-2.268 1.679-1.702h0.818c0.152 0 0.231-0.075 0.231-0.222v-0.607C10.024 32.792 9.942 32.71 9.793 32.71"/>
      <path d="M17.008 37.74h-0.485v-2.605c0-1.551-0.977-2.553-2.487-2.553 -0.697 0-1.281 0.215-1.738 0.638v-0.276c0-0.149-0.082-0.231-0.23-0.231h-1.322c-0.15 0-0.231 0.079-0.231 0.229v0.595c0 0.149 0.082 0.233 0.231 0.233h0.485v3.97h-0.485c-0.149 0-0.231 0.081-0.231 0.23v0.596c0 0.149 0.082 0.231 0.231 0.231h2.038c0.149 0 0.231-0.082 0.231-0.231V37.97c0-0.149-0.081-0.23-0.231-0.23h-0.486v-2.419c0-0.994 0.699-1.715 1.661-1.715 0.937 0 1.496 0.608 1.496 1.628v2.506H14.97c-0.15 0-0.232 0.081-0.232 0.23v0.596c0 0.149 0.082 0.231 0.232 0.231h2.039c0.149 0 0.231-0.082 0.231-0.231V37.97C17.239 37.821 17.158 37.74 17.008 37.74"/>
      <path d="M20.319 32.591c-1.745 0-3.113 1.397-3.113 3.18 0 1.764 1.358 3.146 3.091 3.146 1.753 0 3.125-1.396 3.125-3.179C23.423 33.973 22.059 32.591 20.319 32.591M20.319 37.882c-1.122 0-2.001-0.942-2.001-2.144 0-1.202 0.852-2.11 1.98-2.11 1.128 0 2.013 0.941 2.013 2.142C22.31 36.974 21.454 37.882 20.319 37.882"/>
      <path d="M32.476 32.713h-2.094c-0.149 0-0.231 0.082-0.231 0.231v0.595c0 0.149 0.082 0.23 0.231 0.23h0.471l-0.998 3.225 -1.412-4.108c-0.038-0.11-0.141-0.184-0.256-0.184H27.77c-0.116 0-0.219 0.073-0.257 0.184l-1.398 4.106 -0.998-3.223h0.471c0.149 0 0.23-0.082 0.23-0.23v-0.595c0-0.149-0.081-0.231-0.23-0.231h-2.117c-0.15 0-0.232 0.082-0.232 0.231v0.595c0 0.149 0.082 0.23 0.232 0.23h0.497l1.659 4.871c0.039 0.106 0.141 0.179 0.254 0.179h0.451c0.115 0 0.218-0.074 0.256-0.184l1.388-3.992 1.382 3.992c0.037 0.11 0.14 0.184 0.256 0.184h0.451c0.114 0 0.216-0.072 0.254-0.178l1.66-4.872h0.497c0.15 0 0.232-0.082 0.232-0.23v-0.595C32.708 32.795 32.626 32.713 32.476 32.713"/>
      <path d="M35.439 37.74h-0.485v-4.796c0-0.149-0.082-0.231-0.231-0.231h-1.334c-0.15 0-0.231 0.082-0.231 0.231v0.595c0 0.149 0.081 0.23 0.231 0.23h0.486v3.97h-0.881c-0.149 0-0.231 0.081-0.231 0.23v0.596c0 0.149 0.082 0.231 0.231 0.231h2.446c0.15 0 0.232-0.082 0.232-0.231V37.97C35.671 37.821 35.589 37.74 35.439 37.74"/>
      <path d="M40.176 35.703H39.59c-0.15 0-0.231 0.081-0.231 0.23v1.128c0 0.388-0.276 0.789-0.738 0.789 -0.581 0-0.828-0.241-0.828-0.806V33.77h1.416c0.149 0 0.231-0.082 0.231-0.231v-0.595c0-0.149-0.082-0.231-0.231-0.231h-1.416v-1.265c0-0.149-0.082-0.231-0.231-0.231h-0.617c-0.15 0-0.232 0.082-0.232 0.231v1.265h-0.645c-0.149 0-0.231 0.082-0.231 0.231v0.595c0 0.149 0.082 0.231 0.231 0.231h0.645v3.329c0 1.091 0.714 1.797 1.818 1.797 1.14 0 1.876-0.682 1.876-1.739v-1.223C40.407 35.784 40.326 35.703 40.176 35.703"/>
      <path d="M34.401 31.944c0.374 0 0.676-0.303 0.676-0.676 0-0.373-0.303-0.676-0.676-0.676 -0.373 0-0.676 0.304-0.676 0.676C33.725 31.642 34.028 31.944 34.401 31.944"/>
    </g>
  </g>
</svg>
