<?xml version="1.0" standalone="no"?>
<!DOCTYPE svg PUBLIC "-//W3C//DTD SVG 20010904//EN"
 "http://www.w3.org/TR/2001/REC-SVG-20010904/DTD/svg10.dtd">
<svg version="1.0" xmlns="http://www.w3.org/2000/svg"
 width="700.000000pt" height="700.000000pt" viewBox="0 0 700.000000 700.000000"
 preserveAspectRatio="xMidYMid meet">
<metadata>
Created by potrace 1.11, written by Peter Selinger 2001-2013
</metadata>
<g transform="translate(0.000000,700.000000) scale(0.100000,-0.100000)"
fill="#000000" stroke="none">
<path d="M0 3500 l0 -3500 3500 0 3500 0 0 3500 0 3500 -3500 0 -3500 0 0
-3500z m5259 2869 c144 -14 284 -48 380 -94 145 -69 248 -209 329 -448 41
-123 45 -141 49 -262 8 -203 -19 -282 -184 -527 -171 -254 -308 -421 -529
-642 -698 -698 -1838 -1406 -2497 -1551 -215 -47 -352 23 -452 230 -117 243
-125 591 -24 1060 117 543 469 1423 717 1790 l68 100 144 42 c227 67 524 140
785 193 509 103 906 139 1214 109z m-2262 -421 c-19 -29 -51 -80 -72 -113 -83
-128 -228 -385 -314 -554 -365 -718 -568 -1407 -632 -2141 -17 -199 -15 -624
5 -807 24 -226 78 -512 104 -560 8 -14 297 144 697 381 1357 806 2496 1695
3195 2494 68 79 126 138 128 132 6 -17 -17 -396 -34 -555 -101 -981 -379
-1959 -638 -2243 -90 -100 -649 -415 -1146 -647 -896 -418 -1682 -686 -2265
-771 -82 -12 -181 -18 -310 -18 -219 0 -314 17 -443 81 -164 81 -267 266 -327
590 -32 174 -40 300 -39 623 1 357 19 600 75 1015 147 1093 478 2264 711 2520
140 154 523 342 1123 551 116 40 211 73 213 73 1 1 -13 -23 -31 -51z"/>
</g>
</svg>
